<?xml version="1.0" encoding="UTF-8" standalone="no"?>
<!-- Creator: CorelDRAW 2020 (64-Bit) -->

<svg
   xml:space="preserve"
   width="4187"
   height="509"
   version="1.1"
   style="clip-rule:evenodd;fill-rule:evenodd;image-rendering:optimizeQuality;shape-rendering:geometricPrecision;text-rendering:geometricPrecision"
   viewBox="0 0 4187 509"
   id="svg498"
   sodipodi:docname="bannerHeaderHelveticaSmallCaps.svg"
   inkscape:version="1.2.2 (b0a8486541, 2022-12-01)"
   inkscape:export-filename="logoBadge.png"
   inkscape:export-xdpi="96"
   inkscape:export-ydpi="96"
   xmlns:inkscape="http://www.inkscape.org/namespaces/inkscape"
   xmlns:sodipodi="http://sodipodi.sourceforge.net/DTD/sodipodi-0.dtd"
   xmlns:xlink="http://www.w3.org/1999/xlink"
   xmlns="http://www.w3.org/2000/svg"
   xmlns:svg="http://www.w3.org/2000/svg"><sodipodi:namedview
   id="namedview500"
   pagecolor="#000000"
   bordercolor="#000000"
   borderopacity="0.25"
   inkscape:showpageshadow="2"
   inkscape:pageopacity="0"
   inkscape:pagecheckerboard="0"
   inkscape:deskcolor="#3c3c3c"
   showgrid="false"
   inkscape:zoom="0.19683143"
   inkscape:cx="2888.2582"
   inkscape:cy="792.55635"
   inkscape:window-width="1920"
   inkscape:window-height="1011"
   inkscape:window-x="0"
   inkscape:window-y="0"
   inkscape:window-maximized="1"
   inkscape:current-layer="layer4"
   showguides="false"
   inkscape:lockguides="false" />
 <defs
   id="defs458"><rect
   x="324.30713"
   y="749.64026"
   width="1492.3606"
   height="358.24496"
   id="rect1255" /><rect
   x="2319.1863"
   y="131.84595"
   width="1927.0173"
   height="445.15277"
   id="rect1785" /><rect
   x="442.91678"
   y="216.74052"
   width="546.11633"
   height="175.64771"
   id="rect9625" /><linearGradient
   id="linearGradient4618"
   inkscape:swatch="solid"><stop
     style="stop-color:#ffffff;stop-opacity:1;"
     offset="0"
     id="stop4616" /></linearGradient><linearGradient
   id="id13"
   gradientUnits="userSpaceOnUse"
   x1="423.64999"
   y1="797.39001"
   x2="1601.5601"
   y2="839.34998">
   <stop
   offset="0"
   style="stop-opacity:1; stop-color:#B3B3B3"
   id="stop2374" />
   <stop
   offset="0.458824"
   style="stop-opacity:1; stop-color:white"
   id="stop2376" />
   <stop
   offset="1"
   style="stop-opacity:1; stop-color:#B8B8B8"
   id="stop2378" />
  </linearGradient><rect
   x="584.80389"
   y="423.14984"
   width="833.03613"
   height="216.65018"
   id="rect87621" /><linearGradient
   id="linearGradient78316"
   gradientUnits="userSpaceOnUse"
   x1="857.13"
   y1="789.37"
   x2="868.31"
   y2="1087.1899"
   spreadMethod="pad">
   <stop
   offset="0"
   style="stop-opacity:1; stop-color:#FF8B00"
   id="stop78308" /><stop
   offset="0.19637898"
   style="stop-color:#ed572a;stop-opacity:1;"
   id="stop78310" /><stop
   offset="0.67111236"
   style="stop-color:#e43d3f;stop-opacity:1;"
   id="stop84364" />
   
   <stop
   offset="1"
   style="stop-color:#ac340f;stop-opacity:1;"
   id="stop78314" />
  </linearGradient><linearGradient
   id="linearGradient78294"
   gradientUnits="userSpaceOnUse"
   x1="857.13"
   y1="789.37"
   x2="868.31"
   y2="1087.1899"
   spreadMethod="pad">
   <stop
   offset="0"
   style="stop-opacity:1; stop-color:#FF8B00"
   id="stop78286" /><stop
   offset="0.2"
   style="stop-color:#ed572a;stop-opacity:1;"
   id="stop78288" />
   <stop
   offset="0.4"
   style="stop-opacity:1; stop-color:#DB2455"
   id="stop78290" />
   
  </linearGradient><linearGradient
   id="linearGradient78284"
   gradientUnits="userSpaceOnUse"
   x1="857.13"
   y1="789.37"
   x2="868.31"
   y2="1087.1899">
   <stop
   offset="0"
   style="stop-opacity:1; stop-color:#FF8B00"
   id="stop78276" /><stop
   offset="0.2"
   style="stop-color:#ed572a;stop-opacity:1;"
   id="stop78278" />
   <stop
   offset="0.4"
   style="stop-opacity:1; stop-color:#DB2455"
   id="stop78280" />
   
  </linearGradient><linearGradient
   id="linearGradient47350"
   gradientUnits="userSpaceOnUse"
   x1="590.82001"
   y1="970.98999"
   x2="653.27002"
   y2="1036.17">
   <stop
   offset="0"
   style="stop-color:#1eb6c8;stop-opacity:1;"
   id="stop47346" /><stop
   offset="0.47540298"
   style="stop-color:#21a4c5;stop-opacity:1;"
   id="stop67958" />
   <stop
   offset="1"
   style="stop-color:#2492c2;stop-opacity:1;"
   id="stop47348" />
  </linearGradient><linearGradient
   id="linearGradient47140"
   gradientUnits="userSpaceOnUse"
   x1="590.82001"
   y1="970.98999"
   x2="653.27002"
   y2="1036.17">
   <stop
   offset="0"
   style="stop-color:#00ffff;stop-opacity:1;"
   id="stop47134" /><stop
   offset="0.7500248"
   style="stop-color:#1fa1c9;stop-opacity:1;"
   id="stop47136" />
   <stop
   offset="1"
   style="stop-color:#2492c2;stop-opacity:1;"
   id="stop47138" />
  </linearGradient><linearGradient
   id="linearGradient46833"
   gradientUnits="userSpaceOnUse"
   x1="590.82001"
   y1="970.98999"
   x2="653.27002"
   y2="1036.17">
   <stop
   offset="0"
   style="stop-color:#1aaece;stop-opacity:1;"
   id="stop46827" />
   <stop
   offset="1"
   style="stop-color:#1e92c4;stop-opacity:1;"
   id="stop46831" />
  </linearGradient><inkscape:path-effect
   effect="fill_between_many"
   method="originald"
   linkedpaths="#path44175,0,1"
   id="path-effect46077"
   is_visible="true"
   lpeversion="0"
   join="true"
   close="true"
   autoreverse="true" />
  <style
   type="text/css"
   id="style364">
   <![CDATA[
    .fil0 {fill:white}
    .fil1 {fill:black;fill-rule:nonzero}
    .fil2 {fill:white;fill-rule:nonzero}
    .fil5 {fill:url(#id0)}
    .fil12 {fill:url(#id1)}
    .fil15 {fill:url(#id2)}
    .fil11 {fill:url(#id3)}
    .fil10 {fill:url(#id4)}
    .fil7 {fill:url(#id5)}
    .fil16 {fill:url(#id6)}
    .fil13 {fill:url(#id7)}
    .fil6 {fill:url(#id8)}
    .fil14 {fill:url(#id9)}
    .fil9 {fill:url(#id10)}
    .fil8 {fill:url(#id11)}
    .fil4 {fill:url(#id12);fill-rule:nonzero}
    .fil3 {fill:url(#id13);fill-rule:nonzero}
   ]]>
  </style>
  <linearGradient
   id="id0"
   gradientUnits="userSpaceOnUse"
   x1="1197.54"
   y1="734.91998"
   x2="1200.05"
   y2="1242.72"
   spreadMethod="pad">
   <stop
   offset="0"
   style="stop-opacity:1; stop-color:#303030"
   id="stop366" />
   <stop
   offset="0.219608"
   style="stop-opacity:1; stop-color:#F0F0F0"
   id="stop368" />
   <stop
   offset="0.521569"
   style="stop-opacity:1; stop-color:#7D7D7D"
   id="stop370" />
   <stop
   offset="0.780392"
   style="stop-opacity:1; stop-color:#EDEDED"
   id="stop372" />
   <stop
   offset="1"
   style="stop-opacity:1; stop-color:#4F4F4F"
   id="stop374" />
  </linearGradient>
  <linearGradient
   id="id1"
   gradientUnits="userSpaceOnUse"
   x1="916.32001"
   y1="780.72998"
   x2="782.90002"
   y2="841.26001"
   gradientTransform="translate(-573.60005,-744.03948)">
   <stop
   offset="0"
   style="stop-opacity:1; stop-color:#CC3D1D"
   id="stop377" />
   <stop
   offset="1"
   style="stop-opacity:1; stop-color:#F36A1C"
   id="stop379" />
  </linearGradient>
  <linearGradient
   id="id2"
   gradientUnits="userSpaceOnUse"
   x1="681.87"
   y1="1005.08"
   x2="825.79999"
   y2="1068.09"
   gradientTransform="translate(-573.60005,-744.03948)">
   <stop
   offset="0.14425844"
   style="stop-color:#16c8d5;stop-opacity:1;"
   id="stop382" />
   <stop
   offset="0.18680455"
   style="stop-color:#1eb6c8;stop-opacity:1;"
   id="stop384" /><stop
   offset="0.43038145"
   style="stop-color:#0a7d8f;stop-opacity:1;"
   id="stop50558" />
   <stop
   offset="1"
   style="stop-opacity:1; stop-color:#1AAECE"
   id="stop386" />
  </linearGradient>
  <linearGradient
   id="id3"
   gradientUnits="userSpaceOnUse"
   x1="978.71997"
   y1="1028.4301"
   x2="843.44"
   y2="1004.34"
   gradientTransform="translate(-573.60005,-744.03948)">
   <stop
   offset="0"
   style="stop-color:#3c066b;stop-opacity:1;"
   id="stop389" /><stop
   offset="0.78043771"
   style="stop-color:#ac340f;stop-opacity:1;"
   id="stop84976" /><stop
   offset="1"
   style="stop-color:#cc3d1d;stop-opacity:1;"
   id="stop84854" />
   
  </linearGradient>
  <linearGradient
   id="id4"
   gradientUnits="userSpaceOnUse"
   x1="857.13"
   y1="789.37"
   x2="868.31"
   y2="1087.1899"
   xlink:href="#linearGradient78294"
   gradientTransform="translate(855.56099,40.680405)">
   <stop
   offset="0"
   style="stop-opacity:1; stop-color:#FF8B00"
   id="stop394" /><stop
   offset="0.2"
   style="stop-color:#ed572a;stop-opacity:1;"
   id="stop68267" />
   <stop
   offset="0.4"
   style="stop-opacity:1; stop-color:#DB2455"
   id="stop396" />
   <stop
   offset="1"
   style="stop-opacity:1; stop-color:#4F017F"
   id="stop398" />
  </linearGradient>
  <linearGradient
   id="id5"
   gradientUnits="userSpaceOnUse"
   x1="874.96997"
   y1="936.40002"
   x2="764.96002"
   y2="1245.46"
   gradientTransform="translate(-573.60005,-744.03948)">
   <stop
   offset="0"
   style="stop-color:#00ffff;stop-opacity:1;"
   id="stop401" /><stop
   offset="0.41812995"
   style="stop-color:#19b1cf;stop-opacity:1;"
   id="stop19991" />
   <stop
   offset="0.66000003"
   style="stop-color:#1a6096;stop-opacity:1;"
   id="stop403" />
   <stop
   offset="1"
   style="stop-color:#0000ff;stop-opacity:1;"
   id="stop405" />
  </linearGradient>
  <linearGradient
   id="id6"
   gradientUnits="userSpaceOnUse"
   x1="873.65002"
   y1="885.22998"
   x2="669.17999"
   y2="963.06"
   gradientTransform="translate(-573.60005,-744.03948)">
   <stop
   offset="0.23846726"
   style="stop-opacity:1; stop-color:#6B0E56"
   id="stop408" /><stop
   offset="0.63752478"
   style="stop-color:#ac340f;stop-opacity:1;"
   id="stop84727" />
   <stop
   offset="1"
   style="stop-color:#e43d3f;stop-opacity:1;"
   id="stop410" />
  </linearGradient>
  <linearGradient
   id="id7"
   gradientUnits="userSpaceOnUse"
   x1="846.21002"
   y1="964.48999"
   x2="755.17999"
   y2="949.84998"
   gradientTransform="translate(-573.60005,-744.03948)">
   <stop
   offset="0"
   style="stop-color:#19b1cf;stop-opacity:1;"
   id="stop413" /><stop
   offset="0.5"
   style="stop-color:#0cd8e7;stop-opacity:1;"
   id="stop72727" />
   <stop
   offset="1"
   style="stop-color:#06e9ff;stop-opacity:1;"
   id="stop415" />
  </linearGradient>
  <linearGradient
   id="id8"
   gradientUnits="userSpaceOnUse"
   x1="1202.65"
   y1="789.88"
   x2="1199.9"
   y2="1235.08">
   <stop
   offset="0"
   style="stop-opacity:1; stop-color:#757575"
   id="stop418" />
   <stop
   offset="0.219608"
   style="stop-opacity:1; stop-color:#F0F0F0"
   id="stop420" />
   <stop
   offset="0.521569"
   style="stop-opacity:1; stop-color:#7D7D7D"
   id="stop422" />
   <stop
   offset="0.780392"
   style="stop-opacity:1; stop-color:#EDEDED"
   id="stop424" />
   <stop
   offset="1"
   style="stop-opacity:1; stop-color:#2B2B2B"
   id="stop426" />
  </linearGradient>
  <linearGradient
   id="id9"
   gradientUnits="userSpaceOnUse"
   x1="847.12"
   y1="1238.89"
   x2="851.14001"
   y2="1119.62"
   gradientTransform="translate(-573.60005,-744.03948)">
   <stop
   offset="0"
   style="stop-opacity:1; stop-color:#2D166E"
   id="stop429" />
   <stop
   offset="1"
   style="stop-opacity:1; stop-color:#2492C4"
   id="stop431" />
  </linearGradient>
  <linearGradient
   id="id10"
   gradientUnits="userSpaceOnUse"
   x1="603.91998"
   y1="796.54999"
   x2="656.97998"
   y2="841.41998"
   gradientTransform="translate(-573.60005,-744.03948)">
   <stop
   offset="0"
   style="stop-opacity:1; stop-color:#FF8B00"
   id="stop434" /><stop
   offset="0.75"
   style="stop-color:#dc3b42;stop-opacity:1;"
   id="stop84486" />
   
  </linearGradient>
  <linearGradient
   id="id11"
   gradientUnits="userSpaceOnUse"
   x1="590.82001"
   y1="970.98999"
   x2="653.27002"
   y2="1036.17"
   gradientTransform="translate(-573.60005,-744.03948)">
   <stop
   offset="0"
   style="stop-color:#00ffff;stop-opacity:1;"
   id="stop439" /><stop
   offset="0.5"
   style="stop-color:#1fa1c9;stop-opacity:1;"
   id="stop25963" />
   <stop
   offset="1"
   style="stop-color:#1f68c9;stop-opacity:1;"
   id="stop441" />
  </linearGradient>
  <linearGradient
   id="id12"
   gradientUnits="userSpaceOnUse"
   x1="523.07001"
   y1="1460.17"
   x2="1505.97"
   y2="1441.6">
   <stop
   offset="0"
   style="stop-opacity:1; stop-color:#B5B5B5"
   id="stop444" />
   <stop
   offset="0.458824"
   style="stop-opacity:1; stop-color:#F7F7F7"
   id="stop446" />
   <stop
   offset="1"
   style="stop-opacity:1; stop-color:#B0B0B0"
   id="stop448" />
  </linearGradient>
  <linearGradient
   id="id14"
   gradientUnits="userSpaceOnUse"
   x1="423.64999"
   y1="797.39001"
   x2="1601.5601"
   y2="839.34998">
   <stop
   offset="0"
   style="stop-color:#b2b2b2;stop-opacity:1;"
   id="stop451" />
   <stop
   offset="0.46000001"
   style="stop-color:#fafafa;stop-opacity:1;"
   id="stop453" />
   <stop
   offset="1"
   style="stop-opacity:1; stop-color:#B8B8B8"
   id="stop455" />
  </linearGradient>
 <inkscape:path-effect
   effect="fill_between_many"
   method="originald"
   linkedpaths="#path44175,0,1"
   id="path-effect45221"
   is_visible="true"
   lpeversion="0"
   join="true"
   close="true"
   autoreverse="true" /><linearGradient
   inkscape:collect="always"
   xlink:href="#id8"
   id="linearGradient47150"
   x1="976.92999"
   y1="1001.345"
   x2="1417.84"
   y2="1001.345"
   gradientUnits="userSpaceOnUse"
   gradientTransform="translate(664.50828,-740.44119)" /><linearGradient
   inkscape:collect="always"
   xlink:href="#linearGradient47350"
   id="linearGradient47342"
   x1="814.38"
   y1="1087.8291"
   x2="890.98047"
   y2="1087.8291"
   gradientUnits="userSpaceOnUse"
   gradientTransform="translate(-573.59943,-744.03858)" /><linearGradient
   inkscape:collect="always"
   xlink:href="#linearGradient78316"
   id="linearGradient78296"
   gradientUnits="userSpaceOnUse"
   x1="857.13"
   y1="789.37"
   x2="868.31"
   y2="1087.1899"
   gradientTransform="translate(-573.60005,-744.03948)" /><linearGradient
   inkscape:collect="always"
   xlink:href="#id14"
   id="linearGradient4634"
   x1="444.25021"
   y1="609.15314"
   x2="1589.3127"
   y2="609.15314"
   gradientUnits="userSpaceOnUse"
   spreadMethod="pad"
   gradientTransform="translate(-114.9221,-70.685809)" /><linearGradient
   inkscape:collect="always"
   xlink:href="#id14"
   id="linearGradient12501"
   gradientUnits="userSpaceOnUse"
   x1="661.23462"
   y1="1525.2581"
   x2="1372.3284"
   y2="1525.2581"
   gradientTransform="translate(-2189.0001)" /><linearGradient
   inkscape:collect="always"
   xlink:href="#id14"
   id="linearGradient13113"
   gradientUnits="userSpaceOnUse"
   gradientTransform="translate(-2189.0001)"
   x1="661.23462"
   y1="1525.2581"
   x2="1372.3284"
   y2="1525.2581" /><linearGradient
   inkscape:collect="always"
   xlink:href="#id8"
   id="linearGradient8849"
   gradientUnits="userSpaceOnUse"
   x1="1202.65"
   y1="789.88"
   x2="1199.9"
   y2="1235.08"
   gradientTransform="translate(664.50828,-740.44119)" /><rect
   x="442.91678"
   y="216.74052"
   width="546.11633"
   height="175.64771"
   id="rect811" /><rect
   x="442.91678"
   y="216.74052"
   width="546.11633"
   height="175.64771"
   id="rect4725" /><rect
   x="442.91678"
   y="216.74052"
   width="546.11633"
   height="175.64771"
   id="rect9493" /><linearGradient
   inkscape:collect="always"
   xlink:href="#id13"
   id="linearGradient1873"
   x1="1059.5918"
   y1="950.65265"
   x2="2093.1587"
   y2="941.2453"
   gradientUnits="userSpaceOnUse"
   gradientTransform="translate(-603.00177,-686.74529)" /><linearGradient
   inkscape:collect="always"
   xlink:href="#id13"
   id="linearGradient3283"
   x1="1387.8071"
   y1="796.0733"
   x2="1777.5464"
   y2="796.0733"
   gradientUnits="userSpaceOnUse"
   gradientTransform="translate(667.66258,-503.83899)" /><linearGradient
   inkscape:collect="always"
   xlink:href="#id13"
   id="linearGradient4298"
   x1="1083.2107"
   y1="693.15601"
   x2="2536.8555"
   y2="693.15601"
   gradientUnits="userSpaceOnUse"
   gradientTransform="translate(1556.9982,-439.56738)" /><linearGradient
   inkscape:collect="always"
   xlink:href="#id13"
   id="linearGradient1781"
   gradientUnits="userSpaceOnUse"
   gradientTransform="translate(-590.06428,-686.74529)"
   x1="1059.5918"
   y1="950.65265"
   x2="2093.1587"
   y2="941.2453" /><linearGradient
   inkscape:collect="always"
   xlink:href="#id13"
   id="linearGradient1783"
   gradientUnits="userSpaceOnUse"
   gradientTransform="translate(702.99353,-503.41257)"
   x1="1387.8071"
   y1="796.0733"
   x2="1777.5464"
   y2="796.0733" /><linearGradient
   inkscape:collect="always"
   xlink:href="#id13"
   id="linearGradient24435"
   gradientUnits="userSpaceOnUse"
   gradientTransform="translate(1555.4934,-852.23806)"
   x1="1083.2107"
   y1="693.15601"
   x2="2536.8555"
   y2="693.15601" /><linearGradient
   inkscape:collect="always"
   xlink:href="#id13"
   id="linearGradient24437"
   gradientUnits="userSpaceOnUse"
   gradientTransform="translate(1768.6997,-850.33377)"
   x1="1083.2107"
   y1="693.15601"
   x2="2536.8555"
   y2="693.15601" /><linearGradient
   inkscape:collect="always"
   xlink:href="#id13"
   id="linearGradient24439"
   gradientUnits="userSpaceOnUse"
   gradientTransform="translate(2227.7212,-852.23802)"
   x1="1083.2107"
   y1="693.15601"
   x2="2536.8555"
   y2="693.15601" /><linearGradient
   inkscape:collect="always"
   xlink:href="#id13"
   id="linearGradient24441"
   gradientUnits="userSpaceOnUse"
   gradientTransform="translate(2440.9275,-850.33375)"
   x1="1083.2107"
   y1="693.15601"
   x2="2536.8555"
   y2="693.15601" /></defs>
 <g
   inkscape:groupmode="layer"
   id="layer5"
   inkscape:label="Rectangles"
   style="clip-rule:evenodd;display:none;fill-rule:evenodd;image-rendering:optimizeQuality;shape-rendering:geometricPrecision;text-rendering:geometricPrecision"
   sodipodi:insensitive="true"><g
     inkscape:groupmode="layer"
     id="layer6"
     inkscape:label="Page Aligners"
     style="clip-rule:evenodd;display:none;fill-rule:evenodd;image-rendering:optimizeQuality;shape-rendering:geometricPrecision;text-rendering:geometricPrecision"
     sodipodi:insensitive="true"><rect
       style="clip-rule:evenodd;display:none;opacity:0.500271;fill:#00ffff;fill-opacity:1;fill-rule:evenodd;stroke:none;stroke-width:0;image-rendering:optimizeQuality;shape-rendering:geometricPrecision;text-rendering:geometricPrecision"
       id="rect1824"
       width="440.90997"
       height="509"
       x="403.33002"
       y="0"
       inkscape:label="Rectangle A" /><rect
       style="clip-rule:evenodd;display:none;opacity:0.500271;fill:#ff01c9;fill-opacity:1;fill-rule:evenodd;stroke:none;stroke-width:0;stroke-dasharray:none;stroke-opacity:1;image-rendering:optimizeQuality;shape-rendering:geometricPrecision;text-rendering:geometricPrecision"
       id="rect7506"
       width="844.23999"
       height="509"
       x="-0.2528756"
       y="0"
       inkscape:label="Rectangle S" /><rect
       style="clip-rule:evenodd;display:none;opacity:1;fill:#00ffff;fill-opacity:1;fill-rule:evenodd;stroke:none;stroke-width:0;image-rendering:optimizeQuality;shape-rendering:geometricPrecision;text-rendering:geometricPrecision"
       id="rect3853"
       width="440.90997"
       height="488.36099"
       x="403.33002"
       y="10.319504"
       inkscape:label="Rectangle A Aligner" /></g><g
     inkscape:groupmode="layer"
     id="layer7"
     inkscape:label="Text Aligners"
     style="clip-rule:evenodd;display:inline;fill-rule:evenodd;image-rendering:optimizeQuality;shape-rendering:geometricPrecision;text-rendering:geometricPrecision"><rect
       style="clip-rule:evenodd;display:inline;opacity:0.768922;fill:#00ffff;fill-rule:evenodd;stroke-width:0;image-rendering:optimizeQuality;shape-rendering:geometricPrecision;text-rendering:geometricPrecision"
       id="rect2237"
       width="55"
       height="161.71432"
       x="402.81393"
       y="224.4913"
       inkscape:label="Salmon "
       sodipodi:insensitive="true" /><rect
       style="clip-rule:evenodd;display:inline;opacity:0.727375;fill:#00ffff;fill-rule:evenodd;stroke-width:0;image-rendering:optimizeQuality;shape-rendering:geometricPrecision;text-rendering:geometricPrecision"
       id="rect4053"
       width="85"
       height="338.87854"
       x="1556.4382"
       y="163.40025"
       inkscape:label="Salmon Arm"
       sodipodi:insensitive="true" /><rect
       style="clip-rule:evenodd;display:inline;opacity:0.768922;fill:#00ffff;fill-rule:evenodd;stroke-width:0;image-rendering:optimizeQuality;shape-rendering:geometricPrecision;text-rendering:geometricPrecision"
       id="rect3428"
       width="55"
       height="189.38718"
       x="2031.7511"
       y="202.10492"
       inkscape:label="Arm"
       sodipodi:insensitive="true" /><rect
       style="clip-rule:evenodd;display:inline;opacity:0.738753;fill:#00ffff;fill-rule:evenodd;stroke-width:0;image-rendering:optimizeQuality;shape-rendering:geometricPrecision;text-rendering:geometricPrecision"
       id="rect10097"
       width="135"
       height="189.3961"
       x="2504.29"
       y="202.09599"
       inkscape:label="Jiu-Jitsu" /><rect
       style="clip-rule:evenodd;opacity:0.738753;fill:#00ffff;fill-rule:evenodd;stroke-width:0;image-rendering:optimizeQuality;shape-rendering:geometricPrecision;text-rendering:geometricPrecision"
       id="rect23923"
       width="49.919582"
       height="113.27811"
       x="3261.5981"
       y="278.64041"
       inkscape:label="-J" /></g></g><g
   inkscape:groupmode="layer"
   id="layer1"
   inkscape:label="Suplexer"
   style="display:inline"
   sodipodi:insensitive="true"><path
     class="fil7"
     d="m 84.099953,433.76051 c 58.709997,27.16 113.949997,29.6 151.629997,18.49 69.48,-20.48 60.38,-81.78 5.22,-108.46 -38.39,-18.56 -92.39,-18.95 -125.78,-29.03 -49.029997,-14.79 -51.089997,-52.28 -30.949997,-76.71 18.629997,-22.58 68.269997,-31.55 92.349997,-42.81 35.7,-16.69 64.67,-40.07 36.1,-68.28 33.58,-22.76 60.82,16.59 48.18,53.87 -5.74,16.95 -17.67,33.72 -33.44,48.93 43.24,14.29 77.45,35.6 102.56,60.05 33.79,32.9 49.39,65.07 51.69,94.15 9.17,116.03 -172.4,185.3 -297.559997,49.8 z"
     id="path477"
     style="clip-rule:evenodd;display:inline;fill:url(#id5);fill-rule:evenodd;image-rendering:optimizeQuality;shape-rendering:geometricPrecision;text-rendering:geometricPrecision"
     inkscape:label="Main Body" /><path
     class="fil8"
     d="m 46.169957,213.3805 c -22.92,-2.2 -43.4800027,16.72 -45.93000248,42.25 -2.45000022,25.54 14.13999948,48.02 37.06000248,50.22 8.95,0.85 17.54,-1.51 24.829996,-6.23 -14.009996,-22.23 -4.69,-53.17 10,-72.48 -6.59,-7.66 -15.63,-12.77 -25.959996,-13.76 z"
     id="path479"
     style="clip-rule:evenodd;display:inline;fill:url(#id11);fill-rule:evenodd;image-rendering:optimizeQuality;shape-rendering:geometricPrecision;text-rendering:geometricPrecision"
     inkscape:label="Head" /><path
     class="fil14"
     d="m 84.099953,433.76051 c 58.709997,27.16 113.949997,29.6 151.629997,18.49 48.37,-14.26 58.64,-48.3 41.81,-76.67 l 39.84,-3.04 c 46.37,145.17 -152.26,127.37 -233.279997,61.22 z"
     id="path491"
     style="clip-rule:evenodd;display:inline;fill:url(#id9);fill-rule:evenodd;image-rendering:optimizeQuality;shape-rendering:geometricPrecision;text-rendering:geometricPrecision"
     inkscape:label="Shading Bottom" /><path
     d="m 263.00995,312.00052 c 0,0 39.18011,21.6518 54.37109,60.541 l -39.83985,3.039 c -12.6281,-21.5983 -36.76062,-31.8691 -36.76062,-31.8691 z"
     id="path47142"
     style="display:inline;opacity:0.665;fill:url(#linearGradient47342);fill-opacity:1"
     inkscape:label="Shading Middle" /><path
     class="fil15"
     d="m 240.77995,343.71051 c -38.37,-18.48 -92.27,-18.89 -125.61,-28.95 -38.659997,-11.66 -48.109997,-37.43 -40.509997,-59.78 l 46.279997,2.66 c 0,0 -11.12,24.71 54.36,30.89 65.47,6.17 87.71,23.47 87.71,23.47 z"
     id="path493"
     style="clip-rule:evenodd;display:inline;opacity:0.544;fill:url(#id2);fill-rule:evenodd;image-rendering:optimizeQuality;shape-rendering:geometricPrecision;text-rendering:geometricPrecision"
     inkscape:label="Shading Top" /><path
     class="fil13"
     d="m 177.34995,194.87052 c 35.34,-16.66 63.68,-39.9 35.32,-67.91 45.85,-2.52 39.63,69.94 -26.85,89.78 z"
     id="path489"
     style="clip-rule:evenodd;display:inline;fill:url(#id7);fill-rule:evenodd;image-rendering:optimizeQuality;shape-rendering:geometricPrecision;text-rendering:geometricPrecision"
     inkscape:label="Shading Arm" /></g><g
   inkscape:groupmode="layer"
   id="layer2"
   inkscape:label="Suplexee"
   style="display:inline"
   sodipodi:insensitive="true"><path
     class="fil10"
     d="m 395.61995,85.140515 c -67.48,-69.029996 -217.77,-38.09 -207.36,15.140005 3.94,20.15998 34.05,43.59998 -1.05,69.65998 -35.18,26.13 -75.76,22.64 -102.639997,44.73 C 14.529954,-26.729481 335.40995,-54.749481 395.61995,85.140515 Z m -113.53,80.829985 c 66.17,22.32 143.53,108.46 114.41,209.27 -4.84,-66.17 -65.38,-122.97 -133.88,-154.48 7.35,-12.09 16.7,-30.79 19.47,-54.79 z"
     id="path483"
     style="clip-rule:evenodd;display:inline;fill:url(#linearGradient78296);fill-opacity:1;fill-rule:evenodd;image-rendering:optimizeQuality;shape-rendering:geometricPrecision;text-rendering:geometricPrecision"
     inkscape:label="Main Body" /><path
     class="fil9"
     d="m 63.759953,43.030515 c -23.479996,-3.51 -46.58,14.15 -51.589999,39.43 -5.0099997,25.289985 9.960003,48.629985 33.440003,52.129985 3.95,0.59 7.9,0.58 11.749996,0.03 2.26,-28.78 11.1,-56.249985 28.55,-80.299985 -5.79,-5.91 -13.38,-9.99 -22.15,-11.29 z"
     id="path481"
     inkscape:label="Head"
     style="clip-rule:evenodd;display:inline;fill:url(#id10);fill-rule:evenodd;image-rendering:optimizeQuality;shape-rendering:geometricPrecision;text-rendering:geometricPrecision" /><path
     class="fil11"
     d="m 396.49995,375.24052 c 0,0 22.13,-109.56 -121.14,-180.82 -3.87,10.71 -8.62,19.56 -12.74,26.34 68.5,31.51 129.04,88.31 133.88,154.48 z"
     id="path485"
     style="clip-rule:evenodd;display:inline;fill:url(#id3);fill-rule:evenodd;image-rendering:optimizeQuality;shape-rendering:geometricPrecision;text-rendering:geometricPrecision"
     inkscape:label="Shading Leg" /><path
     class="fil12"
     d="m 395.61995,85.140515 c -67.48,-69.029996 -217.77,-38.09 -207.36,15.140005 l -49.38,-20.970005 c 37.71,-81.5699942 206.27,-73.2699942 256.74,5.83 z"
     id="path487"
     style="clip-rule:evenodd;display:inline;fill:url(#id1);fill-rule:evenodd;image-rendering:optimizeQuality;shape-rendering:geometricPrecision;text-rendering:geometricPrecision"
     inkscape:label="Shading Arm" /><path
     class="fil16"
     d="m 187.85995,97.280515 0.01,0.11 -0.03,-0.11 z m 0.82,4.819985 c 5.27,19.74 32.58,42.56 -1.47,67.84 -35.18,26.13 -75.76,22.64 -102.639997,44.73 -2.76,-9.51 -4.85,-18.65 -6.43,-27.5 25.619997,-21.73 69.969997,-22.28 89.409997,-32.39 23.97,-12.48 22.7,-41.25 21.13,-52.68 z"
     id="path495"
     style="clip-rule:evenodd;display:inline;fill:url(#id6);fill-rule:evenodd;image-rendering:optimizeQuality;shape-rendering:geometricPrecision;text-rendering:geometricPrecision"
     inkscape:label="Shading Body" /></g><g
   inkscape:groupmode="layer"
   id="layer3"
   inkscape:label="A"
   style="display:inline"
   sodipodi:insensitive="true"><path
     class="fil5"
     d="m 1728.9682,502.27879 c 117.79,0 235.58,0 353.38,0 l -106.76,-233.76 -113.7,-248.989975 -220.45,482.749975 h 58.47 c 53.99,-118.24 107.98,-236.48 161.98,-354.71 l 137.6,301.32 h -187.67 l 12.13,-26.56 134.28,-0.17 -17.24,-37.74 -79.1,-173.22 -29.24,64.02 c 12.3,26.92 30.43,66.64 42.73,93.56 -24.59,0 -60.97,0.24 -85.56,0.24 -20.28,44.42 -40.57,88.84 -60.85,133.26 z"
     id="path473"
     style="clip-rule:evenodd;display:inline;fill:url(#linearGradient47150);fill-opacity:1;fill-rule:evenodd;image-rendering:optimizeQuality;shape-rendering:geometricPrecision;text-rendering:geometricPrecision"
     inkscape:label="A Outline" /><path
     class="fil6"
     d="m 1794.7282,376.64879 c -17.96,39.33 -35.92,78.66 -53.88,117.99 109.87,0 219.74,0 329.61,0 l -101.81,-222.95 -106.76,-233.779979 -208.57,456.729979 h 41.68 c 53.32,-116.75 106.63,-233.5 159.94,-350.24 l 6.95,-15.21 149.49,327.34 h -211.44 l 19.1,-41.83 127.31,-0.16 -84.46,-184.95 -20.84,45.63 c 13.76,30.13 27.51,60.26 41.27,90.38 l 4.94,10.81 h -11.88 c -26.89,0 -53.77,0.22 -80.65,0.24 z"
     id="path475"
     inkscape:label="A"
     style="clip-rule:evenodd;display:inline;fill:url(#linearGradient8849);fill-rule:evenodd;image-rendering:optimizeQuality;shape-rendering:geometricPrecision;text-rendering:geometricPrecision" /></g>
<g
   inkscape:groupmode="layer"
   id="layer4"
   inkscape:label="Text"
   sodipodi:insensitive="true"><g
     aria-label="ALMON"
     id="text1311"
     style="font-size:300px;font-family:'Helvetica Light';-inkscape-font-specification:'Helvetica Light, Normal';font-variant-caps:small-caps;letter-spacing:15px;fill:url(#linearGradient1781);stroke-width:0"
     inkscape:label="almon"><path
       d="m 479.10431,386.20563 25.48828,-67.82227 h 98.4375 l 24.90234,67.82227 H 648.8797 L 566.11603,170.28766 H 542.9715 l -84.81446,215.91797 z m 74.70703,-198.63282 v 0 l 42.33398,113.37891 h -84.66796 z"
       id="path26126" /><path
       d="M 829.26056,386.20563 V 368.77399 H 713.39142 V 170.28766 h -20.36133 v 215.91797 z"
       id="path26128" /><path
       d="M 894.35822,386.20563 V 193.57867 h 0.58593 l 71.04492,192.62696 h 19.18946 L 1056.077,193.57867 h 0.5859 v 192.62696 h 20.3613 V 170.28766 h -30.9082 l -69.58005,190.42969 h -0.58594 L 905.19806,170.28766 h -31.20117 v 215.91797 z"
       id="path26130" /><path
       d="m 1131.4285,278.53961 q 0,47.31445 25.4883,79.83399 25.1953,32.95898 75,33.54492 50.0977,-0.58594 75.5859,-33.54492 25.1954,-32.51954 25.1954,-79.83399 0,-48.92578 -25.1954,-81.00586 -25.4882,-32.37304 -76.6113,-32.95898 -48.1933,0.58594 -73.6816,33.25195 -25.7813,32.08008 -25.7813,80.71289 z m 100.7813,95.94727 q -42.041,-0.58594 -61.2305,-29.15039 -9.9609,-13.1836 -14.3555,-30.46875 -4.8339,-17.43164 -4.8339,-36.32813 0,-39.25781 19.4824,-67.5293 19.1894,-28.41796 60.3515,-29.15039 79.1016,1.9043 80.5664,96.67969 0,38.96485 -18.8964,66.79688 -19.1895,28.56445 -61.084,29.15039 z"
       id="path26132" /><path
       d="m 1532.7078,386.20563 h 23.7305 V 170.28766 h -20.5078 v 188.67187 h -0.586 L 1410.5399,170.28766 h -22.9981 v 215.91797 h 20.3613 V 197.82672 h 0.586 z"
       id="path26134" /></g><g
     aria-label="RM"
     id="text3275"
     style="font-size:300px;font-family:'Helvetica Light';-inkscape-font-specification:'Helvetica Light, Normal';font-variant-caps:small-caps;letter-spacing:15px;opacity:0.768922;fill:url(#linearGradient1783);stroke-width:0"
     inkscape:label="rm"><path
       d="m 2107.1123,276.48883 v -83.20312 h 64.7461 q 21.6797,-0.29297 36.6211,7.91015 7.4707,4.10156 11.7187,12.30469 4.2481,8.05664 4.2481,20.06836 -0.293,22.41211 -15.3809,32.66601 -14.9414,10.25391 -38.3789,10.25391 z m 64.1602,17.28516 q 4.248,0 7.9101,0 3.5156,0 7.1778,0.58593 6.8847,1.02539 12.5976,3.66211 6.0059,2.63672 9.8145,8.05664 3.6621,5.12696 5.4199,14.20899 1.1719,6.00586 2.1972,15.52734 0.586,9.66797 0.879,20.6543 0.8789,10.54687 2.3437,19.92187 1.1719,9.52149 4.2481,15.52735 h 22.4121 v -2.05078 q -3.8086,-2.78321 -6.0059,-12.30469 -2.0508,-9.96094 -2.9297,-33.69141 0.293,-8.64258 -0.5859,-17.57812 -0.8789,-9.08203 -3.6621,-17.13867 -2.3438,-8.05664 -7.7637,-14.50196 -5.7129,-5.85937 -15.6738,-9.22851 35.7422,-14.35547 35.1562,-52.73438 -0.5859,-57.42187 -73.5351,-56.68945 h -84.5215 v 215.91797 h 20.3613 v -98.14453 z"
       id="path26121" /><path
       d="M 2321.624,391.91852 V 199.29156 h 0.586 l 71.0449,192.62696 h 19.1894 l 70.8985,-192.62696 h 0.5859 V 391.91852 H 2504.29 V 176.00055 h -30.9082 l -69.58,190.42969 h -0.586 l -70.7519,-190.42969 h -31.2012 v 215.91797 z"
       id="path26123" /></g><g
     inkscape:groupmode="layer"
     id="g24423"
     inkscape:label="Jiu-Jitsu"
     style="clip-rule:evenodd;fill-rule:evenodd;image-rendering:optimizeQuality;shape-rendering:geometricPrecision;text-rendering:geometricPrecision"
     transform="translate(0,412.58929)"><g
       aria-label="J"
       id="text24409"
       style="font-size:400px;font-family:'Helvetica Light';-inkscape-font-specification:'Helvetica Light, Normal';font-variant-caps:small-caps;letter-spacing:15px;opacity:0.768922;fill:url(#linearGradient24435);stroke-width:0"
       inkscape:label="J-Jiu"><path
         d="m 2639.29,-119.4989 q 0,19.14063 3.125,36.718752 2.9297,17.773438 10.9375,31.640625 8.3985,14.0625 23.2422,22.070313 14.6485,8.007812 38.6719,8.398437 81.6406,-0.78125 81.25,-86.328127 v -209.17969 h -27.1484 v 208.20313 q 1.1718,62.109375 -50.7813,62.5 -18.5547,0 -29.2969,-6.835938 -10.3515,-6.445312 -15.625,-16.796875 -4.2968,-10.742187 -5.664,-24.023437 -1.5625,-12.69531 -1.5625,-26.36719 z"
         id="path26099" /></g><g
       aria-label="IU-"
       id="text24413"
       style="font-size:300px;font-family:'Helvetica Light';-inkscape-font-specification:'Helvetica Light, Normal';font-variant-caps:small-caps;letter-spacing:15px;opacity:0.768922;fill:url(#linearGradient24437);stroke-width:0"
       inkscape:label="iu-"><path
         d="M 2895.563,-26.383663 V -242.30163 h -20.3613 v 215.917967 z"
         id="path26102" /><path
         d="m 2966.6665,-107.68249 q -0.293,85.839842 83.6426,87.011717 83.789,-0.878906 83.789,-87.011717 v -134.61914 h -20.5078 v 128.61328 q 1.6114,75.878906 -63.2812,75.585937 -64.1602,1.171875 -63.2813,-75.585937 v -128.61328 h -20.3613 z"
         id="path26104" /><path
         d="m 3185.7192,-113.68835 v 18.603515 h 75.8789 v -18.603515 z"
         id="path26106" /></g><g
       aria-label="J"
       id="text24417"
       style="font-size:400px;font-family:'Helvetica Light';-inkscape-font-specification:'Helvetica Light, Normal';font-variant-caps:small-caps;letter-spacing:15px;opacity:0.768922;fill:url(#linearGradient24439);stroke-width:0"
       inkscape:label="J-Jitsu"><path
         d="m 3311.5178,-119.4989 q 0,19.14063 3.125,36.718752 2.9297,17.773438 10.9375,31.640625 8.3985,14.0625 23.2422,22.070313 14.6484,8.007812 38.6719,8.398437 81.6406,-0.78125 81.25,-86.328127 v -209.17969 h -27.1485 v 208.20313 q 1.1719,62.109375 -50.7812,62.5 -18.5547,0 -29.2969,-6.835938 -10.3515,-6.445312 -15.625,-16.796875 -4.2969,-10.742187 -5.664,-24.023437 -1.5625,-12.69531 -1.5625,-26.36719 z"
         id="path26109" /></g><g
       aria-label="ITSU"
       id="text24421"
       style="font-size:300px;font-family:'Helvetica Light';-inkscape-font-specification:'Helvetica Light, Normal';font-variant-caps:small-caps;letter-spacing:15px;opacity:0.768922;fill:url(#linearGradient24441);stroke-width:0"
       inkscape:label="itsu"><path
         d="M 3567.7908,-26.383663 V -242.30163 h -20.3614 v 215.917967 z"
         id="path26112" /><path
         d="m 3619.1189,-225.01648 h 68.4082 v 198.632817 h 20.3613 V -225.01648 h 68.4082 v -17.28515 h -157.1777 z"
         id="path26114" /><path
         d="m 3809.0212,-90.836788 q 0.293,35.009765 22.5586,52.441406 21.2403,17.724609 55.8106,17.724609 77.6367,-0.878906 78.8086,-62.988281 0,-15.673828 -5.127,-26.367186 -4.9804,-10.25391 -13.7695,-16.8457 -8.6426,-6.88477 -19.7754,-10.83985 -11.1328,-3.80859 -23.4375,-6.29883 -12.0117,-2.63672 -23.4375,-5.41992 -11.5723,-2.63672 -21.2402,-6.5918 -9.5215,-3.80859 -16.1133,-10.40039 -7.0313,-6.29882 -8.7891,-16.55273 -2.6367,-17.72461 9.668,-32.37305 12.3047,-14.64843 43.2129,-15.38086 21.5332,0 37.0605,10.83985 15.6739,11.71875 15.9668,36.32812 h 19.4824 q 0.293,-27.24609 -17.7246,-45.55664 -18.3105,-18.60351 -54.7851,-18.89648 -36.0352,0.58593 -54.6387,17.28515 -18.6035,17.13868 -18.6035,40.57618 0,15.52734 6.0059,25.78125 5.7128,10.54687 14.6484,17.13867 9.668,6.59179 21.3867,10.40039 11.5723,3.95508 23.877,6.88476 12.8906,2.78321 24.6093,5.71289 11.4258,3.07618 20.8008,8.20313 9.5215,4.6875 14.9414,12.59766 5.4199,8.056636 5.4199,20.654292 0,18.017579 -12.5976,30.908204 -13.1836,13.476562 -42.334,13.769531 -25.1953,0.292969 -42.041,-12.011719 -16.9922,-12.304687 -20.0684,-40.722656 z"
         id="path26116" /><path
         d="m 4018.9919,-107.68249 q -0.2929,85.839842 83.6426,87.011717 83.7891,-0.878906 83.7891,-87.011717 v -134.61914 h -20.5078 v 128.61328 q 1.6113,75.878906 -63.2813,75.585937 -64.1601,1.171875 -63.2812,-75.585937 v -128.61328 h -20.3614 z"
         id="path26118" /></g></g></g></svg>
